<?xml version="1.0" encoding="UTF-8" standalone="no"?>
<svg
   width="24"
   height="24"
   viewBox="0 0 24 24"
   fill="none"
   version="1.1"
   id="svg9"
   sodipodi:docname="d775b8e3-18c1-4283-9a65-c7ff98bb0ba1.svg"
   xmlns:inkscape="http://www.inkscape.org/namespaces/inkscape"
   xmlns:sodipodi="http://sodipodi.sourceforge.net/DTD/sodipodi-0.dtd"
   xmlns="http://www.w3.org/2000/svg"
   xmlns:svg="http://www.w3.org/2000/svg">
  <defs
     id="defs9" />
  <sodipodi:namedview
     id="namedview9"
     pagecolor="#ffffff"
     bordercolor="#000000"
     borderopacity="0.25"
     inkscape:showpageshadow="2"
     inkscape:pageopacity="0.0"
     inkscape:pagecheckerboard="0"
     inkscape:deskcolor="#d1d1d1" />
  <path
     d="M17 18C17 18.5523 17.4477 19 18 19C18.5523 19 19 18.5523 19 18C19 17.4477 18.5523 17 18 17C17.4477 17 17 17.4477 17 18Z"
     stroke="currentColor" 
     stroke-width="2"
     stroke-linecap="round"
     stroke-linejoin="round"
     id="path1" />
  <path
     d="M11 18C11 18.5523 11.4477 19 12 19C12.5523 19 13 18.5523 13 18C13 17.4477 12.5523 17 12 17C11.4477 17 11 17.4477 11 18Z"
     stroke="currentColor" 
     stroke-width="2"
     stroke-linecap="round"
     stroke-linejoin="round"
     id="path2" />
  <path
     d="M5 18C5 18.5523 5.44772 19 6 19C6.55228 19 7 18.5523 7 18C7 17.4477 6.55228 17 6 17C5.44772 17 5 17.4477 5 18Z"
     stroke="currentColor" 
     stroke-width="2"
     stroke-linecap="round"
     stroke-linejoin="round"
     id="path3" />
  <path
     d="M17 12C17 12.5523 17.4477 13 18 13C18.5523 13 19 12.5523 19 12C19 11.4477 18.5523 11 18 11C17.4477 11 17 11.4477 17 12Z"
     stroke="currentColor" 
     stroke-width="2"
     stroke-linecap="round"
     stroke-linejoin="round"
     id="path4" />
  <path
     d="M11 12C11 12.5523 11.4477 13 12 13C12.5523 13 13 12.5523 13 12C13 11.4477 12.5523 11 12 11C11.4477 11 11 11.4477 11 12Z"
     stroke="currentColor" 
     stroke-width="2"
     stroke-linecap="round"
     stroke-linejoin="round"
     id="path5" />
  <path
     d="M5 12C5 12.5523 5.44772 13 6 13C6.55228 13 7 12.5523 7 12C7 11.4477 6.55228 11 6 11C5.44772 11 5 11.4477 5 12Z"
     stroke="currentColor" 
     stroke-width="2"
     stroke-linecap="round"
     stroke-linejoin="round"
     id="path6" />
  <path
     d="M17 6C17 6.55228 17.4477 7 18 7C18.5523 7 19 6.55228 19 6C19 5.44772 18.5523 5 18 5C17.4477 5 17 5.44772 17 6Z"
     stroke="currentColor" 
     stroke-width="2"
     stroke-linecap="round"
     stroke-linejoin="round"
     id="path7" />
  <path
     d="M11 6C11 6.55228 11.4477 7 12 7C12.5523 7 13 6.55228 13 6C13 5.44772 12.5523 5 12 5C11.4477 5 11 5.44772 11 6Z"
     stroke="currentColor" 
     stroke-width="2"
     stroke-linecap="round"
     stroke-linejoin="round"
     id="path8" />
  <path
     d="M5 6C5 6.55228 5.44772 7 6 7C6.55228 7 7 6.55228 7 6C7 5.44772 6.55228 5 6 5C5.44772 5 5 5.44772 5 6Z"
     stroke="currentColor" 
     stroke-width="2"
     stroke-linecap="round"
     stroke-linejoin="round"
     id="path9" />
</svg>
