<?xml version="1.0" encoding="UTF-8" standalone="no"?>
<svg
   width="24"
   height="24"
   viewBox="0 0 24 24"
   fill="none"
   version="1.1"
   id="svg1"
   sodipodi:docname="1b78cf59-5b06-4b94-af2b-77437929dd2a.svg"
   xmlns:inkscape="http://www.inkscape.org/namespaces/inkscape"
   xmlns:sodipodi="http://sodipodi.sourceforge.net/DTD/sodipodi-0.dtd"
   xmlns="http://www.w3.org/2000/svg"
   xmlns:svg="http://www.w3.org/2000/svg">
  <defs
     id="defs1" />
  <sodipodi:namedview
     id="namedview1"
     pagecolor="#ffffff"
     bordercolor="#000000"
     borderopacity="0.25"
     inkscape:showpageshadow="2"
     inkscape:pageopacity="0.0"
     inkscape:pagecheckerboard="0"
     inkscape:deskcolor="#d1d1d1" />
  <path
     d="M9 11V20M9 11H4.59961C4.03956 11 3.75981 11 3.5459 11.109C3.35774 11.2049 3.20487 11.3577 3.10899 11.5459C3 11.7598 3 12.04 3 12.6001V20H9M9 11V5.6001C9 5.04004 9 4.75981 9.10899 4.5459C9.20487 4.35774 9.35774 4.20487 9.5459 4.10899C9.75981 4 10.0396 4 10.5996 4H13.3996C13.9597 4 14.2403 4 14.4542 4.10899C14.6423 4.20487 14.7948 4.35774 14.8906 4.5459C14.9996 4.75981 15 5.04005 15 5.6001V8M9 20H15M15 20L21 20.0001V9.6001C21 9.04005 20.9996 8.75981 20.8906 8.5459C20.7948 8.35774 20.6429 8.20487 20.4548 8.10899C20.2409 8 19.9601 8 19.4 8H15M15 20V8"
     stroke="currentColor" 
     stroke-width="2"
     stroke-linecap="round"
     stroke-linejoin="round"
     id="path1" />
</svg>
